<svg width="93" height="93" viewBox="0 0 93 93" fill="none" xmlns="http://www.w3.org/2000/svg">
<g clip-path="url(#clip0_15_504)">
<path d="M58.1248 17.4375C58.1248 25.0694 56.3578 32.0153 53.4748 37.2C52.2541 36.2806 50.8633 35.612 49.3828 35.2329C47.9023 34.8538 46.3614 34.7717 44.849 34.9913C43.2215 29.2834 39.5596 23.1338 34.1656 17.734C33.2499 16.8167 32.2978 15.9364 31.3117 15.0951C36.0464 12.8033 41.2397 11.6168 46.4998 11.625C50.5162 11.625 54.3757 12.3051 57.9678 13.5548C58.0725 14.8277 58.1248 16.1239 58.1248 17.4375ZM58.1248 46.5C58.1248 46.9244 58.1015 47.3487 58.055 47.7614C63.9722 47.6509 70.8425 45.7095 77.4165 41.914C78.5485 41.2592 79.6538 40.5592 80.7296 39.8157C78.9598 30.7551 73.672 22.7649 66.024 17.5945C65.7882 18.8443 65.5071 20.0851 65.1812 21.3145C63.2049 28.6905 59.6942 34.9506 55.5557 39.2112C57.1657 41.2049 58.1248 43.7449 58.1248 46.5ZM57.3285 50.7315C56.7676 52.1628 55.9294 53.469 54.8621 54.5753C53.7948 55.6815 52.5193 56.5659 51.1091 57.1776C54.1607 62.2345 59.2757 67.2042 65.8438 70.9939C67.0063 71.6682 68.1804 72.2843 69.3603 72.8365C72.8253 69.8359 75.6632 66.1802 77.7111 62.0795C79.7589 57.9788 80.9763 53.5139 81.2934 48.9413C80.0844 49.3656 78.8463 49.755 77.5676 50.098C70.2206 52.0684 63.077 52.1672 57.3285 50.7374V50.7315ZM46.4998 58.125C43.8842 58.125 41.4662 57.259 39.5248 55.8C36.6534 60.9732 34.898 67.9017 34.898 75.5102C34.898 76.8471 34.9562 78.1665 35.055 79.4511C38.7354 80.7282 42.6041 81.3785 46.4998 81.375C51.9635 81.375 57.1367 80.1195 61.746 77.8759C60.7475 77.0278 59.7838 76.1397 58.8572 75.2138C53.4806 69.8314 49.8187 63.6992 48.1854 58.0088C47.639 58.0844 47.0752 58.125 46.4998 58.125ZM34.8748 46.5C34.8748 46.035 34.9038 45.57 34.9562 45.1109C29.0274 45.2097 22.1396 47.151 15.5424 50.964C14.4144 51.6151 13.313 52.3112 12.2409 53.0507C13.1021 57.5517 14.8414 61.839 17.3597 65.6677C19.8779 69.4964 23.1256 72.7915 26.9175 75.3649C27.1535 74.0888 27.4405 72.8226 27.7777 71.5694C29.754 64.2049 33.2415 57.9565 37.3683 53.6959C35.7479 51.648 34.8689 49.1115 34.8748 46.5ZM15.4203 42.8265C22.7848 40.8503 29.94 40.7631 35.6943 42.2046C36.8336 39.3332 39.083 37.0315 41.9137 35.8109C38.868 30.7307 33.7413 25.7378 27.1441 21.9306C26.018 21.2802 24.8662 20.6752 23.6915 20.1171C20.2227 23.111 17.3793 26.7605 15.3245 30.8561C13.2698 34.9517 12.0441 39.4127 11.7178 43.9832C12.9151 43.5531 14.1474 43.1695 15.4203 42.8265ZM46.4998 52.3125C48.0413 52.3125 49.5198 51.7002 50.6098 50.6101C51.6999 49.52 52.3123 48.0416 52.3123 46.5C52.3123 44.9585 51.6999 43.48 50.6098 42.39C49.5198 41.2999 48.0413 40.6875 46.4998 40.6875C44.9582 40.6875 43.4798 41.2999 42.3897 42.39C41.2997 43.48 40.6873 44.9585 40.6873 46.5C40.6873 48.0416 41.2997 49.52 42.3897 50.6101C43.4798 51.7002 44.9582 52.3125 46.4998 52.3125Z" fill="#3583DE"/>
<path d="M46.5 87.1875C35.709 87.1875 25.36 82.9008 17.7296 75.2704C10.0992 67.64 5.8125 57.291 5.8125 46.5C5.8125 35.709 10.0992 25.36 17.7296 17.7296C25.36 10.0992 35.709 5.8125 46.5 5.8125C57.291 5.8125 67.64 10.0992 75.2704 17.7296C82.9008 25.36 87.1875 35.709 87.1875 46.5C87.1875 57.291 82.9008 67.64 75.2704 75.2704C67.64 82.9008 57.291 87.1875 46.5 87.1875ZM46.5 93C58.8326 93 70.66 88.1009 79.3805 79.3805C88.1009 70.66 93 58.8326 93 46.5C93 34.1674 88.1009 22.34 79.3805 13.6195C70.66 4.89909 58.8326 0 46.5 0C34.1674 0 22.34 4.89909 13.6195 13.6195C4.89909 22.34 0 34.1674 0 46.5C0 58.8326 4.89909 70.66 13.6195 79.3805C22.34 88.1009 34.1674 93 46.5 93Z" fill="#3583DE"/>
</g>
<defs>
<clipPath id="clip0_15_504">
<rect width="93" height="93" fill="white"/>
</clipPath>
</defs>
</svg>
