<svg width="112" height="112" viewBox="0 0 112 112" fill="none" xmlns="http://www.w3.org/2000/svg">
<path d="M88.6663 14H23.333C15.6143 14 9.33301 20.2813 9.33301 28V84C9.33301 91.7187 15.6143 98 23.333 98H88.6663C96.385 98 102.666 91.7187 102.666 84V28C102.666 20.2813 96.385 14 88.6663 14ZM88.6663 88.6667H23.333C22.0953 88.6667 20.9083 88.175 20.0332 87.2998C19.158 86.4247 18.6663 85.2377 18.6663 84V56H27.9997V74.6667H37.333V56H41.9997V74.6667H51.333V56H55.9997V74.6667H65.333V56H74.6663V74.6667H83.9997V56H93.333V84C93.333 85.2377 92.8414 86.4247 91.9662 87.2998C91.091 88.175 89.904 88.6667 88.6663 88.6667Z" fill="#3583DE"/>
</svg>
