<svg width="101" height="77" viewBox="0 0 101 77" fill="none" xmlns="http://www.w3.org/2000/svg">
<g clip-path="url(#clip0_172_67)">
<path d="M97.3928 0H73.3451C71.6835 0 69.56 0.90475 68.4226 2.09344L65.2243 5.31781C64.9998 5.54468 64.8745 5.8515 64.8761 6.17077C64.8769 6.32885 64.9088 6.48523 64.97 6.63099C65.0311 6.77674 65.1204 6.909 65.2327 7.02023C65.3449 7.13146 65.478 7.21948 65.6243 7.27925C65.7705 7.33902 65.9271 7.36939 66.0851 7.36861C66.4042 7.36703 66.7095 7.23868 66.934 7.01181L70.142 3.773C70.8274 3.05834 72.3544 2.40625 73.3451 2.40625H97.3928C97.7117 2.40625 98.0175 2.53301 98.243 2.75864C98.4685 2.98427 98.5951 3.29029 98.5951 3.60937V27.7898C98.5951 28.7787 97.9435 30.3067 97.2148 31.0069L63.3534 64.6271C63.113 64.8474 62.7978 64.9681 62.4718 64.9645C62.1458 64.9609 61.8334 64.8334 61.5979 64.6078L55.2301 58.2337C55.0033 58.0145 54.6996 57.8932 54.3843 57.896C54.0691 57.8987 53.7675 58.0252 53.5446 58.2483C53.3216 58.4714 53.1952 58.7731 53.1924 59.0886C53.1897 59.404 53.3109 59.708 53.5299 59.9349L59.8977 66.309C60.5813 66.9814 61.4992 67.3615 62.4577 67.3692C63.4162 67.3768 64.3401 67.0113 65.0343 66.3499L98.8981 32.7274C100.096 31.5772 101 29.4525 101 27.7898V3.60937C101 1.61941 99.3815 0 97.3928 0Z" fill="#3583DE"/>
<path d="M93.877 12.0312C93.877 9.37716 91.7199 7.21875 89.0675 7.21875C86.415 7.21875 84.2579 9.37716 84.2579 12.0312C84.2579 14.6853 86.415 16.8438 89.0675 16.8438C91.7199 16.8438 93.877 14.6853 93.877 12.0312ZM86.6627 12.0312C86.6622 11.5547 86.8031 11.0886 87.0674 10.6922C87.3317 10.2957 87.7076 9.9866 88.1476 9.804C88.5875 9.62139 89.0717 9.57349 89.5389 9.66635C90.0061 9.75921 90.4352 9.98867 90.772 10.3257C91.1088 10.6627 91.3381 11.0921 91.4309 11.5595C91.5237 12.027 91.4758 12.5115 91.2934 12.9517C91.1109 13.3919 90.802 13.7681 90.4057 14.0326C90.0095 14.2971 89.5438 14.438 89.0675 14.4375C87.74 14.4375 86.6627 13.3571 86.6627 12.0312ZM39.5871 9.625C37.9254 9.625 35.802 10.5297 34.6621 11.7184L1.01231 45.7212C0.354955 46.4143 -0.00729131 47.3361 0.00213249 48.2916C0.0115563 49.2472 0.391912 50.1616 1.06281 50.8417L26.1397 75.934C26.825 76.6222 27.7436 77 28.7272 77C29.6795 77 30.5789 76.6415 31.2738 75.9749L65.1353 42.3548C66.3353 41.2046 67.2419 39.0799 67.2419 37.4148V13.2344C67.2419 11.2444 65.6234 9.625 63.6347 9.625H39.5871ZM64.9285 13.2344V37.4148C64.9285 38.4062 64.1854 39.9317 63.4568 40.6319L29.5953 74.2521C29.3525 74.4666 29.0389 74.5833 28.7151 74.5798C28.3912 74.5762 28.0802 74.4526 27.8422 74.2328L2.76297 49.1428C2.53807 48.911 2.4097 48.6022 2.40389 48.2792C2.39809 47.9561 2.51528 47.6429 2.73171 47.4031L36.3839 13.398C37.0693 12.6833 38.5963 12.0312 39.5871 12.0312H63.6347C64.296 12.0312 64.9285 12.5703 64.9285 13.2344Z" fill="#3583DE"/>
<path d="M55.3095 16.8438C52.6571 16.8438 50.5 19.0022 50.5 21.6562C50.5 24.3103 52.6571 26.4688 55.3095 26.4688C57.962 26.4688 60.119 24.3103 60.119 21.6562C60.119 19.0022 57.962 16.8438 55.3095 16.8438ZM55.3095 24.0625C54.6903 24.0348 54.1057 23.7692 53.6774 23.3209C53.249 22.8727 53.0099 22.2764 53.0099 21.6562C53.0099 21.0361 53.249 20.4398 53.6774 19.9916C54.1057 19.5433 54.6903 19.2777 55.3095 19.25C55.9287 19.2777 56.5133 19.5433 56.9417 19.9916C57.3701 20.4398 57.6091 21.0361 57.6091 21.6562C57.6091 22.2764 57.3701 22.8727 56.9417 23.3209C56.5133 23.7692 55.9287 24.0348 55.3095 24.0625V24.0625Z" fill="#3583DE"/>
</g>
<defs>
<clipPath id="clip0_172_67">
<rect width="101" height="77" fill="white"/>
</clipPath>
</defs>
</svg>
