<svg width="246" height="280" viewBox="0 0 246 280" fill="none" xmlns="http://www.w3.org/2000/svg">
<g filter="url(#filter0_d_15_436)">
<rect x="9.5" y="5.5" width="227" height="261" rx="10.5" fill="#2C6DB9" stroke="#BCD6F4" stroke-width="3"/>
<path d="M84.2372 200V179.636H91.4957C93.0734 179.636 94.3826 179.908 95.4233 180.452C96.4706 180.995 97.2528 181.748 97.7699 182.709C98.2869 183.663 98.5455 184.767 98.5455 186.02C98.5455 187.266 98.2836 188.363 97.7599 189.311C97.2429 190.252 96.4607 190.985 95.4134 191.509C94.3726 192.032 93.0634 192.294 91.4858 192.294H85.9872V189.649H91.2074C92.2017 189.649 93.0104 189.507 93.6335 189.222C94.2633 188.937 94.724 188.522 95.0156 187.979C95.3073 187.435 95.4531 186.782 95.4531 186.02C95.4531 185.251 95.304 184.585 95.0057 184.021C94.714 183.458 94.2533 183.027 93.6236 182.729C93.0005 182.424 92.1818 182.271 91.1676 182.271H87.3097V200H84.2372ZM94.2898 190.812L99.321 200H95.821L90.8892 190.812H94.2898ZM107.848 200.308C106.344 200.308 105.048 199.987 103.961 199.344C102.88 198.694 102.045 197.783 101.455 196.609C100.872 195.429 100.58 194.047 100.58 192.463C100.58 190.899 100.872 189.52 101.455 188.327C102.045 187.134 102.867 186.202 103.921 185.533C104.981 184.863 106.221 184.528 107.64 184.528C108.501 184.528 109.337 184.671 110.145 184.956C110.954 185.241 111.68 185.688 112.323 186.298C112.966 186.908 113.473 187.7 113.844 188.675C114.215 189.643 114.401 190.819 114.401 192.205V193.259H102.26V191.031H111.488C111.488 190.249 111.329 189.556 111.01 188.953C110.692 188.343 110.245 187.863 109.668 187.511C109.098 187.16 108.428 186.984 107.66 186.984C106.824 186.984 106.095 187.19 105.472 187.601C104.856 188.005 104.378 188.536 104.04 189.192C103.709 189.841 103.543 190.547 103.543 191.31V193.05C103.543 194.071 103.722 194.939 104.08 195.655C104.445 196.371 104.952 196.918 105.601 197.295C106.251 197.667 107.01 197.852 107.878 197.852C108.442 197.852 108.955 197.773 109.419 197.614C109.883 197.448 110.285 197.203 110.623 196.878C110.961 196.553 111.219 196.152 111.398 195.675L114.212 196.182C113.987 197.01 113.582 197.736 112.999 198.359C112.422 198.976 111.696 199.456 110.821 199.801C109.953 200.139 108.962 200.308 107.848 200.308ZM120.085 190.932V200H117.112V184.727H119.965V187.213H120.154C120.506 186.404 121.056 185.755 121.805 185.264C122.561 184.774 123.512 184.528 124.659 184.528C125.699 184.528 126.611 184.747 127.393 185.185C128.175 185.616 128.782 186.259 129.212 187.114C129.643 187.969 129.859 189.026 129.859 190.286V200H126.886V190.643C126.886 189.536 126.597 188.671 126.021 188.048C125.444 187.419 124.652 187.104 123.644 187.104C122.955 187.104 122.342 187.253 121.805 187.551C121.275 187.849 120.854 188.287 120.542 188.864C120.237 189.434 120.085 190.123 120.085 190.932ZM140.387 184.727V187.114H132.045V184.727H140.387ZM134.282 181.068H137.255V195.516C137.255 196.092 137.341 196.527 137.514 196.818C137.686 197.103 137.908 197.299 138.18 197.405C138.458 197.504 138.76 197.554 139.085 197.554C139.323 197.554 139.532 197.537 139.711 197.504C139.89 197.471 140.029 197.445 140.129 197.425L140.666 199.881C140.493 199.947 140.248 200.013 139.93 200.08C139.612 200.152 139.214 200.192 138.737 200.199C137.955 200.212 137.225 200.073 136.549 199.781C135.873 199.49 135.326 199.039 134.909 198.429C134.491 197.819 134.282 197.054 134.282 196.132V181.068ZM147.533 200.338C146.565 200.338 145.69 200.159 144.908 199.801C144.125 199.437 143.506 198.91 143.048 198.22C142.597 197.531 142.372 196.686 142.372 195.685C142.372 194.823 142.538 194.114 142.869 193.557C143.201 193 143.648 192.559 144.212 192.234C144.775 191.91 145.405 191.664 146.101 191.499C146.797 191.333 147.506 191.207 148.229 191.121C149.143 191.015 149.886 190.929 150.456 190.862C151.026 190.789 151.44 190.673 151.699 190.514C151.957 190.355 152.087 190.097 152.087 189.739V189.669C152.087 188.801 151.841 188.128 151.351 187.651C150.867 187.173 150.144 186.935 149.183 186.935C148.182 186.935 147.393 187.157 146.817 187.601C146.247 188.038 145.852 188.526 145.633 189.062L142.839 188.426C143.171 187.498 143.655 186.749 144.291 186.179C144.934 185.602 145.673 185.185 146.508 184.926C147.344 184.661 148.222 184.528 149.143 184.528C149.753 184.528 150.4 184.601 151.082 184.747C151.772 184.886 152.415 185.145 153.011 185.523C153.614 185.901 154.108 186.441 154.493 187.143C154.877 187.839 155.07 188.744 155.07 189.858V200H152.166V197.912H152.047C151.855 198.296 151.566 198.674 151.182 199.045C150.797 199.417 150.303 199.725 149.7 199.97C149.097 200.215 148.374 200.338 147.533 200.338ZM148.179 197.952C149.001 197.952 149.704 197.789 150.287 197.464C150.877 197.14 151.324 196.715 151.629 196.192C151.941 195.661 152.097 195.095 152.097 194.491V192.523C151.99 192.629 151.785 192.728 151.48 192.821C151.182 192.907 150.84 192.983 150.456 193.05C150.071 193.109 149.697 193.166 149.332 193.219C148.968 193.265 148.663 193.305 148.418 193.338C147.841 193.411 147.314 193.534 146.837 193.706C146.366 193.878 145.988 194.127 145.703 194.452C145.425 194.77 145.285 195.194 145.285 195.724C145.285 196.46 145.557 197.017 146.101 197.395C146.644 197.766 147.337 197.952 148.179 197.952ZM161.414 179.636V200H158.441V179.636H161.414Z" fill="white"/>
<path d="M154.484 145.047H112.766C111.29 145.047 109.876 144.461 108.832 143.418C107.789 142.374 107.203 140.96 107.203 139.484V75.5156C107.203 74.0404 107.789 72.6255 108.832 71.5823C109.876 70.5392 111.29 69.9531 112.766 69.9531H146.141L160.047 82.4688V139.484C160.047 140.96 159.461 142.374 158.418 143.418C157.374 144.461 155.96 145.047 154.484 145.047Z" fill="#FABE19"/>
<path d="M146.141 69.9531V76.9062C146.141 78.3815 146.727 79.7964 147.77 80.8395C148.813 81.8827 150.228 82.4688 151.703 82.4688H160.047L146.141 69.9531Z" fill="#F5871E"/>
<path d="M96.0781 69.9531C96.8158 69.9531 97.5232 70.2461 98.0448 70.7677C98.5664 71.2893 98.8594 71.9967 98.8594 72.7344V75.5156H93.2969V72.7344C93.2969 71.9967 93.5899 71.2893 94.1115 70.7677C94.6331 70.2461 95.3405 69.9531 96.0781 69.9531Z" fill="#55525B"/>
<path d="M96.0781 69.9531C96.8158 69.9531 97.5232 70.2461 98.0448 70.7677C98.5664 71.2893 98.8594 71.9967 98.8594 72.7344V75.5156H96.0781V69.9531Z" fill="#353744"/>
<path d="M101.641 81.0781H90.5156V115.844H101.641V81.0781Z" fill="#D7E6F0"/>
<path d="M101.641 81.0781H96.0781V115.844H101.641V81.0781Z" fill="#A5C3DC"/>
<path d="M101.641 115.844H90.5156V138.094H101.641V115.844Z" fill="#55525B"/>
<path d="M101.641 115.844H96.0781V138.094H101.641V115.844Z" fill="#353744"/>
<path d="M97.5195 144.275L101.641 138.094H90.5156L94.6367 144.275C94.7949 144.513 95.0093 144.707 95.2607 144.842C95.5122 144.976 95.7929 145.047 96.0781 145.047C96.3633 145.047 96.6441 144.976 96.8955 144.842C97.147 144.707 97.3613 144.513 97.5195 144.275Z" fill="#A5C3DC"/>
<path d="M97.5192 144.275L97.9321 143.656H94.2236L94.6365 144.276C94.7947 144.513 95.009 144.707 95.2605 144.842C95.5119 144.976 95.7927 145.047 96.0779 145.047C96.3631 145.047 96.6438 144.976 96.8953 144.842C97.1467 144.707 97.3611 144.513 97.5192 144.275Z" fill="#353744"/>
<path d="M90.5156 81.0781V78.2969H87.7344C86.9967 78.2969 86.2893 78.5899 85.7677 79.1115C85.2461 79.6331 84.9531 80.3405 84.9531 81.0781V97.6871C84.9531 99.1846 86.104 100.473 87.5998 100.544C87.9701 100.561 88.3401 100.505 88.6882 100.377C89.0363 100.25 89.3553 100.054 89.6267 99.8014C89.898 99.5489 90.1161 99.2446 90.2681 98.9066C90.4202 98.5685 90.5032 98.2035 90.5121 97.8329C90.5211 97.4623 90.4559 97.0937 90.3204 96.7487C90.1848 96.4037 89.9817 96.0893 89.7229 95.8239C89.4641 95.5585 89.1549 95.3475 88.8134 95.2034C88.4719 95.0592 88.1051 94.9847 87.7344 94.9844V81.0781H90.5156Z" fill="#55525B"/>
<path d="M93.2969 75.5156H98.8594C99.597 75.5156 100.304 75.8086 100.826 76.3302C101.348 76.8518 101.641 77.5592 101.641 78.2969V81.0781H90.5156V78.2969C90.5156 77.5592 90.8086 76.8518 91.3302 76.3302C91.8518 75.8086 92.5592 75.5156 93.2969 75.5156Z" fill="#55525B"/>
<path d="M96.0781 75.5156H98.8594C99.597 75.5156 100.304 75.8086 100.826 76.3302C101.348 76.8518 101.641 77.5592 101.641 78.2969V81.0781H96.0781V75.5156Z" fill="#353744"/>
<path d="M123.427 78.2969C122.136 78.2983 120.899 78.8116 119.987 79.7241C119.074 80.6365 118.561 81.8737 118.56 83.1641V90.8125C118.56 91.1813 118.706 91.535 118.967 91.7958C119.228 92.0566 119.581 92.2031 119.95 92.2031C120.319 92.2031 120.673 92.0566 120.934 91.7958C121.194 91.535 121.341 91.1813 121.341 90.8125V86.6406H125.513V90.8125C125.513 91.1813 125.659 91.535 125.92 91.7958C126.181 92.0566 126.535 92.2031 126.903 92.2031C127.272 92.2031 127.626 92.0566 127.887 91.7958C128.147 91.535 128.294 91.1813 128.294 90.8125V83.1641C128.292 81.8737 127.779 80.6365 126.867 79.7241C125.954 78.8116 124.717 78.2983 123.427 78.2969ZM121.341 83.8594V83.1641C121.341 82.6108 121.561 82.0803 121.952 81.6891C122.343 81.2979 122.874 81.0781 123.427 81.0781C123.98 81.0781 124.511 81.2979 124.902 81.6891C125.293 82.0803 125.513 82.6108 125.513 83.1641V83.8594H121.341Z" fill="#6478B9"/>
<path d="M123.195 72.7344C120.582 72.7344 118.028 73.5092 115.856 74.9608C113.683 76.4125 111.99 78.4757 110.99 80.8897C109.99 83.3037 109.728 85.96 110.238 88.5226C110.748 91.0853 112.006 93.4393 113.854 95.2869C115.701 97.1344 118.055 98.3927 120.618 98.9024C123.181 99.4122 125.837 99.1505 128.251 98.1506C130.665 97.1507 132.728 95.4574 134.18 93.2849C135.631 91.1124 136.406 88.5582 136.406 85.9453C136.402 82.4428 135.009 79.0848 132.532 76.6081C130.056 74.1315 126.698 72.7383 123.195 72.7344ZM123.195 96.375C121.133 96.375 119.116 95.7633 117.401 94.6173C115.686 93.4713 114.349 91.8424 113.56 89.9366C112.77 88.0308 112.564 85.9337 112.966 83.9106C113.368 81.8874 114.362 80.029 115.82 78.5704C117.279 77.1118 119.137 76.1185 121.161 75.716C123.184 75.3136 125.281 75.5201 127.187 76.3095C129.092 77.0989 130.721 78.4357 131.867 80.1509C133.013 81.866 133.625 83.8825 133.625 85.9453C133.622 88.7105 132.522 91.3615 130.567 93.3168C128.611 95.272 125.96 96.3719 123.195 96.375Z" fill="#6478B9"/>
<path d="M136.406 104.719H115.547C114.011 104.719 112.766 105.964 112.766 107.5C112.766 109.036 114.011 110.281 115.547 110.281H136.406C137.942 110.281 139.188 109.036 139.188 107.5C139.188 105.964 137.942 104.719 136.406 104.719Z" fill="#F5871E"/>
<path d="M136.406 118.625H115.547C114.011 118.625 112.766 119.87 112.766 121.406C112.766 122.942 114.011 124.188 115.547 124.188H136.406C137.942 124.188 139.188 122.942 139.188 121.406C139.188 119.87 137.942 118.625 136.406 118.625Z" fill="#F5871E"/>
<path d="M136.406 132.531H115.547C114.011 132.531 112.766 133.776 112.766 135.312C112.766 136.849 114.011 138.094 115.547 138.094H136.406C137.942 138.094 139.188 136.849 139.188 135.312C139.188 133.776 137.942 132.531 136.406 132.531Z" fill="#F5871E"/>
<path d="M147.532 111.44H147.513C147.236 111.438 146.962 111.38 146.707 111.271C146.453 111.161 146.222 111.002 146.03 110.802L143.299 107.971C143.109 107.773 142.96 107.541 142.859 107.286C142.759 107.031 142.71 106.759 142.715 106.485C142.72 106.211 142.779 105.941 142.888 105.69C142.998 105.438 143.156 105.211 143.353 105.021C143.55 104.831 143.783 104.682 144.038 104.581C144.293 104.481 144.565 104.432 144.839 104.437C145.113 104.442 145.383 104.501 145.634 104.61C145.885 104.72 146.112 104.878 146.302 105.075L147.559 106.378L151.619 102.317C151.813 102.123 152.043 101.968 152.296 101.863C152.549 101.757 152.821 101.703 153.095 101.702C153.37 101.702 153.641 101.756 153.895 101.86C154.149 101.965 154.379 102.119 154.573 102.313C154.767 102.507 154.921 102.738 155.026 102.991C155.131 103.245 155.184 103.517 155.184 103.791C155.184 104.065 155.129 104.337 155.024 104.59C154.918 104.844 154.764 105.074 154.569 105.267L149.006 110.83C148.615 111.221 148.085 111.44 147.532 111.44Z" fill="#6478B9"/>
<path d="M147.532 125.809H147.513C147.236 125.807 146.962 125.749 146.707 125.64C146.452 125.53 146.222 125.371 146.03 125.172L143.299 122.34C143.109 122.142 142.96 121.91 142.859 121.655C142.759 121.4 142.71 121.128 142.715 120.854C142.72 120.58 142.779 120.31 142.888 120.058C142.998 119.807 143.156 119.58 143.353 119.39C143.55 119.2 143.783 119.05 144.038 118.95C144.293 118.85 144.565 118.801 144.839 118.806C145.113 118.811 145.383 118.87 145.634 118.979C145.885 119.089 146.112 119.247 146.303 119.444L147.559 120.747L151.619 116.687C152.011 116.298 152.541 116.079 153.093 116.08C153.645 116.081 154.175 116.301 154.565 116.691C154.956 117.082 155.175 117.611 155.176 118.163C155.177 118.715 154.958 119.245 154.569 119.637L149.007 125.2C148.615 125.59 148.085 125.81 147.532 125.809Z" fill="#6478B9"/>
<path d="M147.532 138.789H147.513C147.236 138.786 146.962 138.729 146.707 138.619C146.453 138.51 146.222 138.35 146.03 138.151L143.299 135.319C142.915 134.921 142.705 134.386 142.715 133.833C142.725 133.28 142.955 132.754 143.353 132.369C143.751 131.985 144.286 131.775 144.839 131.785C145.392 131.795 145.918 132.025 146.302 132.423L147.559 133.727L151.619 129.666C152.011 129.28 152.54 129.065 153.091 129.067C153.641 129.07 154.168 129.289 154.557 129.678C154.946 130.067 155.166 130.595 155.168 131.145C155.17 131.695 154.955 132.224 154.569 132.616L149.007 138.179C148.615 138.57 148.085 138.789 147.532 138.789Z" fill="#6478B9"/>
</g>
<defs>
<filter id="filter0_d_15_436" x="0" y="0" width="246" height="280" filterUnits="userSpaceOnUse" color-interpolation-filters="sRGB">
<feFlood flood-opacity="0" result="BackgroundImageFix"/>
<feColorMatrix in="SourceAlpha" type="matrix" values="0 0 0 0 0 0 0 0 0 0 0 0 0 0 0 0 0 0 127 0" result="hardAlpha"/>
<feOffset dy="4"/>
<feGaussianBlur stdDeviation="4"/>
<feComposite in2="hardAlpha" operator="out"/>
<feColorMatrix type="matrix" values="0 0 0 0 0 0 0 0 0 0 0 0 0 0 0 0 0 0 0.1 0"/>
<feBlend mode="normal" in2="BackgroundImageFix" result="effect1_dropShadow_15_436"/>
<feBlend mode="normal" in="SourceGraphic" in2="effect1_dropShadow_15_436" result="shape"/>
</filter>
</defs>
</svg>
