<svg width="130" height="36" viewBox="0 0 130 36" fill="none" xmlns="http://www.w3.org/2000/svg">
<path d="M17.2215 16.8608C17.2215 15.73 16.9988 14.6103 16.5661 13.5656C16.1334 12.5209 15.4991 11.5716 14.6995 10.772C13.8999 9.97245 12.9507 9.33819 11.906 8.90546C10.8613 8.47272 9.74155 8.25 8.61077 8.25C7.47999 8.25 6.36028 8.47272 5.31557 8.90546C4.27086 9.33819 3.32162 9.97245 2.52204 10.772C1.72245 11.5716 1.08819 12.5209 0.655456 13.5656C0.222724 14.6103 -9.88561e-08 15.73 0 16.8608H3.62536C3.62536 16.2061 3.75431 15.5578 4.00485 14.9529C4.25539 14.3481 4.62262 13.7985 5.08555 13.3356C5.54849 12.8726 6.09808 12.5054 6.70294 12.2549C7.3078 12.0043 7.95608 11.8754 8.61077 11.8754C9.26546 11.8754 9.91375 12.0043 10.5186 12.2549C11.1235 12.5054 11.673 12.8726 12.136 13.3356C12.5989 13.7985 12.9661 14.3481 13.2167 14.9529C13.4672 15.5578 13.5962 16.2061 13.5962 16.8608H17.2215Z" fill="#FFFFFF"/>
<path d="M0 16.8608L3.62559 16.8608V26.3779H0L0 16.8608Z" fill="#FFFFFF"/>
<path d="M13.596 16.8608H17.2215V26.3779H13.596V16.8608Z" fill="#FFFFFF"/>
<path d="M6.79798 16.8608H10.4236V26.3779H6.79798V16.8608Z" fill="#FFFFFF"/>
<path d="M34.672 14.48C34.368 13.92 33.928 13.496 33.352 13.208C32.792 12.904 32.128 12.752 31.36 12.752C30.032 12.752 28.968 13.192 28.168 14.072C27.368 14.936 26.968 16.096 26.968 17.552C26.968 19.104 27.384 20.32 28.216 21.2C29.064 22.064 30.224 22.496 31.696 22.496C32.704 22.496 33.552 22.24 34.24 21.728C34.944 21.216 35.456 20.48 35.776 19.52H30.568V16.496H39.496V20.312C39.192 21.336 38.672 22.288 37.936 23.168C37.216 24.048 36.296 24.76 35.176 25.304C34.056 25.848 32.792 26.12 31.384 26.12C29.72 26.12 28.232 25.76 26.92 25.04C25.624 24.304 24.608 23.288 23.872 21.992C23.152 20.696 22.792 19.216 22.792 17.552C22.792 15.888 23.152 14.408 23.872 13.112C24.608 11.8 25.624 10.784 26.92 10.064C28.216 9.328 29.696 8.96 31.36 8.96C33.376 8.96 35.072 9.448 36.448 10.424C37.84 11.4 38.76 12.752 39.208 14.48H34.672ZM43.8333 11.216C43.1133 11.216 42.5213 11.008 42.0573 10.592C41.6093 10.16 41.3853 9.632 41.3853 9.008C41.3853 8.368 41.6093 7.84 42.0573 7.424C42.5213 6.992 43.1133 6.776 43.8333 6.776C44.5373 6.776 45.1133 6.992 45.5613 7.424C46.0253 7.84 46.2573 8.368 46.2573 9.008C46.2573 9.632 46.0253 10.16 45.5613 10.592C45.1133 11.008 44.5373 11.216 43.8333 11.216ZM45.8733 12.608V26H41.7693V12.608H45.8733ZM54.2954 26.192C53.1274 26.192 52.0874 25.992 51.1754 25.592C50.2634 25.192 49.5434 24.648 49.0154 23.96C48.4874 23.256 48.1914 22.472 48.1274 21.608H52.1834C52.2314 22.072 52.4474 22.448 52.8314 22.736C53.2154 23.024 53.6874 23.168 54.2474 23.168C54.7594 23.168 55.1514 23.072 55.4234 22.88C55.7114 22.672 55.8554 22.408 55.8554 22.088C55.8554 21.704 55.6554 21.424 55.2554 21.248C54.8554 21.056 54.2074 20.848 53.3114 20.624C52.3514 20.4 51.5514 20.168 50.9114 19.928C50.2714 19.672 49.7194 19.28 49.2554 18.752C48.7914 18.208 48.5594 17.48 48.5594 16.568C48.5594 15.8 48.7674 15.104 49.1834 14.48C49.6154 13.84 50.2394 13.336 51.0554 12.968C51.8874 12.6 52.8714 12.416 54.0074 12.416C55.6874 12.416 57.0074 12.832 57.9674 13.664C58.9434 14.496 59.5034 15.6 59.6474 16.976H55.8554C55.7914 16.512 55.5834 16.144 55.2314 15.872C54.8954 15.6 54.4474 15.464 53.8874 15.464C53.4074 15.464 53.0394 15.56 52.7834 15.752C52.5274 15.928 52.3994 16.176 52.3994 16.496C52.3994 16.88 52.5994 17.168 52.9994 17.36C53.4154 17.552 54.0554 17.744 54.9194 17.936C55.9114 18.192 56.7194 18.448 57.3434 18.704C57.9674 18.944 58.5114 19.344 58.9754 19.904C59.4554 20.448 59.7034 21.184 59.7194 22.112C59.7194 22.896 59.4954 23.6 59.0474 24.224C58.6154 24.832 57.9834 25.312 57.1514 25.664C56.3354 26.016 55.3834 26.192 54.2954 26.192ZM67.6782 26.192C66.5102 26.192 65.4702 25.992 64.5582 25.592C63.6462 25.192 62.9262 24.648 62.3982 23.96C61.8702 23.256 61.5742 22.472 61.5102 21.608H65.5662C65.6142 22.072 65.8302 22.448 66.2142 22.736C66.5982 23.024 67.0702 23.168 67.6302 23.168C68.1422 23.168 68.5342 23.072 68.8062 22.88C69.0942 22.672 69.2382 22.408 69.2382 22.088C69.2382 21.704 69.0382 21.424 68.6382 21.248C68.2382 21.056 67.5902 20.848 66.6942 20.624C65.7342 20.4 64.9342 20.168 64.2942 19.928C63.6542 19.672 63.1022 19.28 62.6382 18.752C62.1742 18.208 61.9422 17.48 61.9422 16.568C61.9422 15.8 62.1502 15.104 62.5662 14.48C62.9982 13.84 63.6222 13.336 64.4382 12.968C65.2702 12.6 66.2542 12.416 67.3902 12.416C69.0702 12.416 70.3902 12.832 71.3502 13.664C72.3262 14.496 72.8862 15.6 73.0302 16.976H69.2382C69.1742 16.512 68.9662 16.144 68.6142 15.872C68.2782 15.6 67.8302 15.464 67.2702 15.464C66.7902 15.464 66.4222 15.56 66.1662 15.752C65.9102 15.928 65.7822 16.176 65.7822 16.496C65.7822 16.88 65.9822 17.168 66.3822 17.36C66.7982 17.552 67.4382 17.744 68.3022 17.936C69.2942 18.192 70.1022 18.448 70.7262 18.704C71.3502 18.944 71.8942 19.344 72.3582 19.904C72.8382 20.448 73.0862 21.184 73.1022 22.112C73.1022 22.896 72.8782 23.6 72.4302 24.224C71.9982 24.832 71.3662 25.312 70.5342 25.664C69.7182 26.016 68.7662 26.192 67.6782 26.192ZM87.733 9.152V12.44H83.269V26H79.165V12.44H74.701V9.152H87.733ZM102.417 19.088C102.417 19.472 102.393 19.872 102.345 20.288H93.0567C93.1207 21.12 93.3847 21.76 93.8487 22.208C94.3287 22.64 94.9127 22.856 95.6007 22.856C96.6247 22.856 97.3367 22.424 97.7367 21.56H102.105C101.881 22.44 101.473 23.232 100.881 23.936C100.305 24.64 99.5767 25.192 98.6967 25.592C97.8167 25.992 96.8327 26.192 95.7447 26.192C94.4327 26.192 93.2647 25.912 92.2407 25.352C91.2167 24.792 90.4167 23.992 89.8407 22.952C89.2647 21.912 88.9767 20.696 88.9767 19.304C88.9767 17.912 89.2567 16.696 89.8167 15.656C90.3927 14.616 91.1927 13.816 92.2167 13.256C93.2407 12.696 94.4167 12.416 95.7447 12.416C97.0407 12.416 98.1927 12.688 99.2007 13.232C100.209 13.776 100.993 14.552 101.553 15.56C102.129 16.568 102.417 17.744 102.417 19.088ZM98.2167 18.008C98.2167 17.304 97.9767 16.744 97.4967 16.328C97.0167 15.912 96.4167 15.704 95.6967 15.704C95.0087 15.704 94.4247 15.904 93.9447 16.304C93.4807 16.704 93.1927 17.272 93.0807 18.008H98.2167ZM112.742 12.464C114.31 12.464 115.558 12.976 116.486 14C117.43 15.008 117.902 16.4 117.902 18.176V26H113.822V18.728C113.822 17.832 113.59 17.136 113.126 16.64C112.662 16.144 112.038 15.896 111.254 15.896C110.47 15.896 109.846 16.144 109.382 16.64C108.918 17.136 108.686 17.832 108.686 18.728V26H104.582V12.608H108.686V14.384C109.102 13.792 109.662 13.328 110.366 12.992C111.07 12.64 111.862 12.464 112.742 12.464ZM128.218 22.52V26H126.13C124.642 26 123.482 25.64 122.65 24.92C121.818 24.184 121.402 22.992 121.402 21.344V16.016H119.77V12.608H121.402V9.344H125.506V12.608H128.194V16.016H125.506V21.392C125.506 21.792 125.602 22.08 125.794 22.256C125.986 22.432 126.306 22.52 126.754 22.52H128.218Z" fill="#FFFFFF"/>
</svg>
