<svg width="128" height="128" viewBox="0 0 128 128" fill="none" xmlns="http://www.w3.org/2000/svg">
<path d="M79.7899 73.1796L52.4999 72.1396L47.6299 118.9C47.6299 118.9 55.1099 118.38 65.0099 118.38C74.9099 118.38 83.2599 119.08 83.2599 119.08L79.7899 73.1796Z" fill="#9E9E9E"/>
<path d="M24.8998 79.72L18.2198 78.33C18.2198 78.33 16.5798 88.92 15.0698 95.48C13.5598 102.04 11.0498 110.91 11.0498 110.91L26.9298 118.8C26.9298 118.8 41.2998 120.06 41.5498 119.56C41.7998 119.06 52.3898 94.47 52.3898 94.47L54.9098 85.01L24.8998 79.72ZM74.5698 84.89L107.85 77.96L109.36 81.99C109.36 81.99 111.55 91.15 112.76 96.11C114.71 104.07 117.22 111.2 117.22 111.2L102.29 120.44L86.9098 119.94L74.5698 84.89Z" fill="#3583DE"/>
<path d="M18.1402 74.3799C18.1402 74.6099 18.3002 76.2799 18.2202 77.4999C18.1402 78.7199 17.9102 80.2199 17.9102 80.2199C17.9102 80.2199 18.8202 80.4199 19.6602 80.9599C20.5002 81.4999 22.1802 83.5599 22.1802 83.5599C22.1802 83.5599 25.4602 82.3499 27.4502 83.0999C30.5102 84.2499 31.8102 87.0799 31.8102 87.0799C31.8102 87.0799 34.9402 84.1699 38.7702 84.7899C42.5102 85.3899 43.9702 88.9199 43.9702 88.9199C43.9702 88.9199 46.7802 86.6499 49.2402 86.7799C52.1502 86.9299 53.2202 89.0699 53.2202 89.0699L57.5802 80.2799L25.1702 74.3899H18.1402V74.3799Z" fill="#3583DE"/>
<path d="M9.41992 115.05L11.1799 110.39C11.1799 110.39 18.9799 114.21 24.6299 115.89C30.2799 117.57 36.9399 117.8 36.9399 117.8C36.9399 117.8 36.8599 115.16 34.4099 113.25C31.9599 111.34 28.0799 108.13 28.0799 108.13L33.3799 106.36L36.3299 105.18L45.5799 116.19L42.5999 123.61C42.5999 123.61 36.0999 124.45 25.7099 121.78C15.3199 119.11 9.41992 115.05 9.41992 115.05Z" fill="#C9C9C9"/>
<path d="M73.9404 78.7396C74.0904 79.3496 74.0204 84.1696 74.0204 84.1696L76.8504 87.3796C76.8504 87.3796 78.3804 85.3896 81.9004 85.5496C85.4204 85.6996 87.0204 87.3096 87.0204 87.3096C87.0204 87.3096 89.1604 84.7096 92.0704 84.1796C94.9804 83.6396 97.8004 85.1696 97.8004 85.1696C97.8004 85.1696 99.7904 81.4996 102.69 80.6596C105.6 79.8196 109.36 81.9996 109.36 81.9996L107.81 72.5596L79.3004 74.6096L73.9404 78.7396Z" fill="#3583DE"/>
<path d="M116.91 110.24L118.74 114.9C118.74 114.9 113.16 119.26 105.97 121.25C98.7804 123.24 88.7803 124.04 88.7803 124.04L85.8604 107.65L95.7204 104.67L101.13 106.98C101.13 106.98 96.3403 111.01 95.0303 112.86C92.5403 116.36 93.4304 118.58 93.4304 118.58C93.4304 118.58 101.07 117.89 106.96 115.37C112.86 112.83 116.91 110.24 116.91 110.24Z" fill="#C9C9C9"/>
<path d="M31.8203 108.02C31.8203 108.02 35.2103 109.54 36.9403 110.77C39.0803 112.3 41.2203 114.59 41.9103 118.26C42.3903 120.79 42.6003 123.61 42.6003 123.61C42.6003 123.61 44.9703 125.44 49.6303 117.65C54.2903 109.86 56.6603 99.0703 57.0503 91.4303C57.4303 83.7903 57.2803 82.0303 57.2803 82.0303L50.4003 93.3403L40.2303 102.59L31.8203 108.02Z" fill="#3583DE"/>
<path d="M57.3402 82.0696C57.3402 82.0696 58.1402 89.0097 48.7902 97.6197C42.9802 102.97 37.3102 106.65 33.4302 108.17C32.1002 108.69 30.9102 108.48 30.0702 108.47C27.3302 108.43 27.8402 107.96 29.3702 107.18C31.1702 106.26 36.4002 104.35 46.1902 95.3297C54.0202 88.1097 54.5602 80.8896 54.5602 80.8896L57.3302 79.3896V82.0696H57.3402Z" fill="#FFFEFF"/>
<path d="M89.1596 124C89.1596 124 85.7196 125.22 80.5196 118.19C75.3196 111.16 73.7196 98.7 73.4896 94.72C73.2596 90.74 73.3396 83.25 73.3396 83.25L82.8996 95.25C82.8996 95.25 97.7296 106.41 97.4996 106.49C97.2696 106.57 92.6596 109.47 90.9296 112.38C87.3996 118.26 89.1596 124 89.1596 124Z" fill="#3583DE"/>
<path d="M72.8096 79.94C72.8096 79.94 72.6696 82.56 73.1796 84.55C74.2496 88.75 77.9396 93.29 82.7396 97.55C88.9296 103.05 96.1196 106.88 96.6496 107.03C97.1896 107.18 101.01 107.34 101.08 106.95C101.11 106.82 101.34 106.25 100.09 105.34C97.5196 103.49 91.8296 100.23 87.1696 96.55C83.8796 93.95 79.6596 90.72 75.9896 84.06C75.3196 82.85 75.5596 79.79 75.5596 79.79L72.8096 79.94Z" fill="white"/>
<path d="M21.9696 57.2797C21.9696 57.2797 14.0096 58.3197 13.7596 59.4497C13.5096 60.5897 14.3896 75.6097 14.3896 75.6097C14.3896 75.6097 17.7396 74.9897 19.4296 75.3597C21.1196 75.7297 24.2996 77.7897 24.2996 77.7897L29.6296 74.5097L33.4696 79.8397C33.4696 79.8397 36.1796 78.4397 39.9296 78.8097C43.6796 79.1797 46.1996 81.7097 46.1996 81.7097L51.4395 77.3997L57.2896 81.9997C57.2896 81.9997 59.9595 78.8897 64.9195 78.7997C69.8795 78.7097 72.8795 82.3597 72.8795 82.3597L79.4296 76.6497L85.8895 81.6097C85.8895 81.6097 88.4195 79.5497 91.3195 78.8997C94.2196 78.2397 96.3696 79.3697 96.3696 79.3697L100.49 72.0697L105.17 75.4397C105.17 75.4397 106.67 73.6597 108.82 73.3797C110.97 73.0997 113.59 73.0097 113.59 73.0097C113.59 73.0097 113.4 62.8997 113.4 61.3997C113.4 59.8997 112.84 57.4697 112.18 56.9997C111.52 56.5297 105.63 55.2197 105.63 55.2197L21.9696 57.2797Z" fill="#3583DE"/>
<path d="M32.5 61.6498L24.69 63.4598L24.29 77.7998C24.29 77.7998 26.67 77.1098 29.05 77.3598C31.43 77.6098 33.46 79.8598 33.46 79.8598C33.46 79.8598 33.41 70.5398 33.49 68.9698C33.57 67.3998 34.18 64.4198 34.51 63.8498C34.84 63.2698 32.5 61.6498 32.5 61.6498ZM53.06 64.6998L45.93 67.3098C45.93 67.3098 45.74 73.9098 45.91 76.5398C46.07 79.1698 46.19 81.7298 46.19 81.7298C46.19 81.7298 49.44 80.6498 52.08 80.8098C54.71 80.9698 57.28 82.0198 57.28 82.0198L57.18 67.8998L53.06 64.6998ZM72.64 67.6598C72.64 67.6598 72.89 73.0098 72.97 75.7198C73.05 78.4298 72.87 82.3898 72.87 82.3898C72.87 82.3898 76.75 80.4098 79.8 80.1598C82.84 79.9098 85.88 81.6398 85.88 81.6398C85.88 81.6398 85.64 76.0498 85.31 71.9398C85.08 69.0698 84.24 66.5898 84.24 66.5898L76.43 62.3998L72.64 67.6598ZM96.36 79.3898C96.36 79.3898 98.95 76.5398 101.01 75.8798C103.07 75.2198 105.16 75.4598 105.16 75.4598C105.16 75.4598 105.04 68.7298 104.71 65.6798C104.38 62.6398 104.08 60.8898 104.08 60.8898L94.52 56.7998L94.79 64.3198C94.79 64.3198 95.92 66.8298 96.25 71.1898C96.57 75.5498 96.36 79.3898 96.36 79.3898Z" fill="#E1E1E1"/>
<path d="M64.4203 29.8203L52.8803 34.9603C52.8803 34.9603 42.3903 42.8303 34.0903 48.0803C25.7903 53.3303 21.0203 55.3303 20.0303 55.7403C18.4503 56.4003 15.8903 57.1803 14.7803 57.9403C12.9403 59.2203 13.7103 59.8203 14.0103 59.9203C14.3103 60.0203 23.4903 64.1303 39.7603 66.5403C56.0303 68.9503 78.1503 67.9703 89.4903 65.7703C100.82 63.5703 112.18 57.0103 112.18 57.0103C112.18 57.0103 111.23 55.4203 104.94 52.6903C98.6403 49.9603 93.2903 47.0203 84.1603 41.0403C75.0303 35.0603 72.8303 32.1203 72.8303 32.1203L64.4203 29.8203Z" fill="#3583DE"/>
<path d="M54.66 37.0603C54.66 37.0603 41.96 50.0703 26.32 60.8803C24.61 62.0603 24.69 63.4603 24.69 63.4603C24.69 63.4603 25.95 63.9403 29.05 64.6603C32.2 65.3903 34.01 65.5703 34.01 65.5703C34.01 65.5703 35.44 63.9303 38.49 60.8803C43.95 55.4203 47.34 51.0903 51.61 45.5603C54.44 41.8903 57.81 37.4903 57.81 37.4903L54.66 37.0603ZM60.12 38.7403C60.12 38.7403 55.5 49.4403 53.3 54.0603C52.26 56.2303 49.94 60.2503 47.84 63.6103C46.01 66.5403 45.93 67.3203 45.93 67.3203C45.93 67.3203 50.04 67.9103 52.03 67.9103C54.02 67.9103 57.17 67.8903 57.17 67.8903C57.17 67.8903 58.75 63.1803 60.43 53.7403C61.41 48.2503 62.84 38.6303 62.84 38.6303L60.12 38.7403ZM66.52 39.1603C66.52 39.1603 67.56 49.4703 68.72 54.9003C70.29 62.2503 72.63 67.6503 72.63 67.6503C72.63 67.6503 76.59 67.4903 78.79 67.2803C80.99 67.0703 84.22 66.5803 84.22 66.5803C84.22 66.5803 80.44 60.7603 76.79 54.9003C74.38 51.0203 69.86 41.9903 69.13 38.5303C68.51 35.5503 66.52 39.1603 66.52 39.1603ZM72.18 37.2703C72.18 37.5803 75.5 44.6603 83.72 53.5403C90.33 60.6803 94.74 64.3503 94.74 64.3503C94.74 64.3503 98.51 63.1903 100.2 62.5703C102.19 61.8403 104.08 60.8903 104.08 60.8903C104.08 60.8903 95.16 54.7003 89.91 50.4003C84.66 46.1003 77.42 40.1203 75.43 37.3903C73.44 34.6503 72.18 37.2703 72.18 37.2703Z" fill="white"/>
<path d="M64.3101 22.6897C62.1001 22.8497 61.3701 26.5697 60.2201 27.7297C59.0701 28.8797 52.8701 34.9697 52.8701 34.9697C52.8701 34.9697 53.9701 40.7197 64.8901 40.6097C74.8801 40.4997 76.7801 35.7697 76.7801 35.7697C76.7801 35.7697 70.4001 28.9897 68.9301 27.3097C67.4601 25.6197 67.2501 22.4797 64.3101 22.6897Z" fill="#3583DE"/>
<path d="M64.6803 17.8299C64.6803 17.8299 66.5703 17.2299 69.2603 17.5399C72.0003 17.8599 73.8203 18.7499 76.6703 18.6899C81.0303 18.6099 84.5403 16.5599 85.8003 15.3999C87.0603 14.2399 88.6703 12.3599 87.8303 11.7299C86.9903 11.0999 83.4103 12.0499 79.4103 10.4699C75.8803 9.07993 74.1103 5.44992 69.1003 4.86992C64.7903 4.37992 63.5303 6.14993 63.5303 6.14993L64.6803 17.8299Z" fill="#3583DE"/>
<path d="M63 4.88965V24.5596L66.15 23.7196L65.84 4.88965H63Z" fill="#3583DE"/>
</svg>
