<svg width="114" height="114" viewBox="0 0 114 114" fill="none" xmlns="http://www.w3.org/2000/svg">
<path d="M96.1875 28.4996H78.0633C77.206 23.5347 74.6224 19.0323 70.7686 15.7869C66.9147 12.5415 62.0383 10.7617 57 10.7617C51.9617 10.7617 47.0853 12.5415 43.2314 15.7869C39.3776 19.0323 36.794 23.5347 35.9367 28.4996H17.8125C15.9228 28.4996 14.1106 29.2502 12.7744 30.5864C11.4382 31.9226 10.6875 33.7349 10.6875 35.6246V92.6246C10.6875 94.5142 11.4382 96.3265 12.7744 97.6627C14.1106 98.9989 15.9228 99.7496 17.8125 99.7496H96.1875C98.0772 99.7496 99.8894 98.9989 101.226 97.6627C102.562 96.3265 103.312 94.5142 103.312 92.6246V35.6246C103.312 33.7349 102.562 31.9226 101.226 30.5864C99.8894 29.2502 98.0772 28.4996 96.1875 28.4996ZM57 17.8121C60.1585 17.8181 63.226 18.87 65.7235 20.8036C68.2209 22.7371 70.0077 25.4433 70.8047 28.4996H43.1953C43.9923 25.4433 45.7791 22.7371 48.2765 20.8036C50.774 18.87 53.8415 17.8181 57 17.8121ZM96.1875 92.6246H17.8125V35.6246H35.625V46.3121C35.625 47.2569 36.0003 48.163 36.6684 48.8311C37.3365 49.4992 38.2427 49.8746 39.1875 49.8746C40.1323 49.8746 41.0385 49.4992 41.7066 48.8311C42.3747 48.163 42.75 47.2569 42.75 46.3121V35.6246H71.25V46.3121C71.25 47.2569 71.6253 48.163 72.2934 48.8311C72.9615 49.4992 73.8677 49.8746 74.8125 49.8746C75.7573 49.8746 76.6635 49.4992 77.3316 48.8311C77.9997 48.163 78.375 47.2569 78.375 46.3121V35.6246H96.1875V92.6246Z" fill="#3583DE"/>
</svg>
